<?xml version="1.0" encoding="UTF-8" standalone="no"?>
<!-- Generator: Adobe Illustrator 16.0.0, SVG Export Plug-In . SVG Version: 6.00 Build 0)  -->

<svg
   xmlns:dc="http://purl.org/dc/elements/1.1/"
   xmlns:cc="http://creativecommons.org/ns#"
   xmlns:rdf="http://www.w3.org/1999/02/22-rdf-syntax-ns#"
   xmlns:svg="http://www.w3.org/2000/svg"
   xmlns="http://www.w3.org/2000/svg"
   xmlns:sodipodi="http://sodipodi.sourceforge.net/DTD/sodipodi-0.dtd"
   xmlns:inkscape="http://www.inkscape.org/namespaces/inkscape"
   version="1.1"
   id="Layer_12"
   x="0px"
   y="0px"
   width="300"
   height="300"
   viewBox="0 0 300 300"
   enable-background="new 0 0 100 100"
   xml:space="preserve"
   inkscape:version="0.48.4 r9939"
   sodipodi:docname="hexagon.svg"><metadata
   id="metadata3955"><rdf:RDF><cc:Work
       rdf:about=""><dc:format>image/svg+xml</dc:format><dc:type
         rdf:resource="http://purl.org/dc/dcmitype/StillImage" /><dc:title /></cc:Work></rdf:RDF></metadata><defs
   id="defs3953">
	
<filter
   inkscape:collect="always"
   id="filter3787"
   color-interpolation-filters="sRGB"><feGaussianBlur
     inkscape:collect="always"
     stdDeviation="0.11228906"
     id="feGaussianBlur3789" /></filter><filter
   color-interpolation-filters="sRGB"
   inkscape:collect="always"
   id="filter3787-2"><feGaussianBlur
     inkscape:collect="always"
     stdDeviation="0.11228906"
     id="feGaussianBlur3789-6" /></filter><filter
   color-interpolation-filters="sRGB"
   inkscape:collect="always"
   id="filter3787-2-1"><feGaussianBlur
     inkscape:collect="always"
     stdDeviation="0.11228906"
     id="feGaussianBlur3789-6-7" /></filter></defs><sodipodi:namedview
   pagecolor="#ffffff"
   bordercolor="#666666"
   borderopacity="1"
   objecttolerance="10"
   gridtolerance="10"
   guidetolerance="10"
   inkscape:pageopacity="0"
   inkscape:pageshadow="2"
   inkscape:window-width="1920"
   inkscape:window-height="1138"
   id="namedview3951"
   showgrid="true"
   inkscape:zoom="0.9263099"
   inkscape:cx="179.41072"
   inkscape:cy="226.61047"
   inkscape:window-x="-8"
   inkscape:window-y="-8"
   inkscape:window-maximized="1"
   inkscape:current-layer="Layer_12"
   showguides="true"
   inkscape:snap-global="true"
   inkscape:snap-midpoints="true"
   inkscape:snap-bbox="true"
   inkscape:snap-bbox-midpoints="true"
   inkscape:object-paths="true"
   inkscape:snap-nodes="true"
   inkscape:snap-object-midpoints="true"
   fit-margin-top="0"
   fit-margin-left="0"
   fit-margin-right="0"
   fit-margin-bottom="0"><inkscape:grid
     type="xygrid"
     id="grid4020"
     empspacing="5"
     visible="true"
     enabled="true"
     snapvisiblegridlinesonly="true" /></sodipodi:namedview>
<path
   style="fill:#eeeeee;fill-opacity:1;stroke:#2b5a6a;stroke-width:10;stroke-linecap:butt;stroke-linejoin:round;stroke-miterlimit:4;stroke-opacity:1;stroke-dasharray:none;stroke-dashoffset:0;filter:url(#filter3787)"
   d="m 198.4053,219.91822 -20.0625,34.71875 20.0625,34.75 40.125,0 20.0625,-34.75 -20.0625,-34.71875 -40.125,0 z"
   id="path4729"
   inkscape:connector-curvature="0" />
<path
   id="path3869"
   style="fill:#929292;fill-opacity:1;stroke:none"
   d="m 212.87367,229.44819 -4.83396,4.83397 c 11.22056,11.22056 11.21174,29.49511 -0.0218,40.72866 l 4.84617,4.84617 c 13.89633,-13.89632 13.90312,-36.51528 0.01,-50.4088 z m -8.57122,8.55971 -4.83155,4.83155 c 3.14583,3.14584 4.87409,7.33455 4.87315,11.79141 0.002,4.44863 -1.74185,8.64887 -4.89955,11.80657 l 4.85282,4.85282 c 9.17817,-9.17826 9.17743,-24.11004 0.005,-33.28235 z m -6.56966,13.27275 c -1.8512,-1.85121 -4.86528,-1.8454 -6.7053,-0.005 -1.85017,1.85017 -1.83905,4.8474 0.0121,6.69855 1.85784,1.85785 4.8533,1.86721 6.70347,0.017 1.83998,-1.84007 1.84762,-4.85232 -0.0103,-6.71022 z"
   inkscape:connector-curvature="0" /><g
   id="g3856"
   transform="matrix(0.66175591,0,0,0.66175591,122.71005,212.55065)"><path
     id="path3026"
     d="m -105.8125,-24.8125 c 14.628838,3.854372 25.798121,16.7294038 26.75,32.65625 l 0.03125,0.59375 c 0.743739,17.023695 -10.469825,31.814033 -26.25,36.21875 l 18.96875,0 c 9.26158,-7.669737 15.444464,-19.013393 16.21875,-31.96875 l 0.0625,-0.71875 C -69.388274,-2.7485339 -75.897231,-16.130562 -86.5,-24.8125 l -19.3125,0 z"
     style="fill:#929292;fill-opacity:1;stroke:none"
     inkscape:connector-curvature="0" /><path
     id="path3026-7-5-6"
     d="m -115.21875,-17 c -0.46075,0.0042 -0.9411,0.0347 -1.40625,0.0625 -0.48591,0.02904 -0.9595,0.071 -1.4375,0.125 l -6.8125,11.78125 c 2.54806,-1.6758913 5.55026,-2.7425326 8.8125,-2.9375 0.6202,-0.037066 1.23607,-0.056492 1.84375,-0.03125 9.11521,0.3786262 16.631505,7.63458681 17.1875,16.9375 l 0,0.28125 c 0.428974,9.818928 -7.09539,18.163655 -16.90625,18.75 -3.96306,0.236852 -7.68232,-0.845495 -10.78125,-2.84375 l 6.75,11.6875 c 1.50084,0.165078 3.03572,0.218115 4.59375,0.125 14.716287,-0.879517 25.987211,-13.396608 25.34375,-28.125 L -88.0625,8.375 C -88.924293,-6.0445151 -100.93538,-17.129232 -115.21875,-17 z m -17.75,26 -0.53125,0.90625 0.53125,0.90625 c -0.028,-0.609779 -0.0322,-1.215349 0,-1.8125 z"
     style="fill:#929292;fill-opacity:1;stroke:none"
     inkscape:connector-curvature="0" /><path
     transform="matrix(0.35999128,0,0,0.35998871,-89.800867,6.3987004)"
     sodipodi:open="true"
     sodipodi:end="6.3268457"
     sodipodi:start="0.059694282"
     d="m -45.044529,11.491471 c -0.823717,13.782526 -12.664416,24.287716 -26.446942,23.464 -13.782526,-0.823717 -24.287716,-12.664416 -23.464,-26.4469419 0.823717,-13.7825259 12.664416,-24.2877161 26.446942,-23.4640001 13.626522,0.814393 24.080516,12.408806 23.484705,26.046634"
     sodipodi:ry="25"
     sodipodi:rx="25"
     sodipodi:cy="10"
     sodipodi:cx="-70"
     id="path3026-7"
     style="fill:#929292;fill-opacity:1;stroke:none"
     sodipodi:type="arc" /></g><path
   style="fill:none;stroke:#2b5a6a;stroke-width:10;stroke-linecap:butt;stroke-linejoin:round;stroke-miterlimit:4;stroke-opacity:1;stroke-dasharray:none;stroke-dashoffset:0"
   d="m 46.436535,183.73072 -20.06249,34.71875 20.06249,34.75 40.125008,0 20.062497,-34.75 -20.062497,-34.71875 -40.125008,0 z"
   id="path4729-0"
   inkscape:connector-curvature="0" /><path
   style="fill:#ffffff;fill-opacity:1;stroke:#3b7c91;stroke-width:10;stroke-linecap:butt;stroke-linejoin:round;stroke-miterlimit:4;stroke-opacity:1;stroke-dasharray:none;stroke-dashoffset:0;filter:url(#filter3787-2)"
   d="m 60.261685,21.980841 -20.0625,34.718751 20.0625,34.75 40.125005,0 20.0625,-34.75 -20.0625,-34.718751 -40.125005,0 z"
   id="path4729-7"
   inkscape:connector-curvature="0" /><g
   id="g3978"
   transform="matrix(1.4663294,0,0,1.4663294,202.33176,280.58229)"
   style="fill:#929292;fill-opacity:1"><path
     inkscape:connector-curvature="0"
     id="path3088-5"
     d="m -83.05835,-169.72604 c -9.02296,-0.0816 -16.62346,6.92811 -17.16787,16.03714 -0.56196,9.40287 6.60243,17.48182 16.0053,18.04378 9.40287,0.56197 17.48181,-6.60242 18.04378,-16.00529 l 0.0159,-0.27074 c 0.40648,-9.30415 -6.72477,-17.21744 -16.02122,-17.77304 -0.29383,-0.0176 -0.58484,-0.0292 -0.87591,-0.0319 z m -0.0319,3.29661 c 0.23472,0.002 0.46377,0.0177 0.70073,0.0318 7.49681,0.44805 13.24351,6.81415 12.91572,14.31717 l 0,0.22296 c -0.45318,7.58264 -6.97343,13.3689 -14.55606,12.91572 -7.58264,-0.45318 -13.3689,-6.97343 -12.91572,-14.55606 0.43902,-7.34568 6.57906,-12.99748 13.85533,-12.93164 z"
     style="fill:#929292;fill-opacity:1;stroke:none" /><path
     inkscape:connector-curvature="0"
     id="path3088-7"
     d="m -83.6476,-163.06911 c -5.26598,0.21873 -9.61641,4.4039 -9.93761,9.77835 -0.34262,5.73276 4.01375,10.66202 9.7465,11.00464 5.73276,0.34262 10.66202,-4.02968 11.00464,-9.76243 l 0.0159,-0.17519 c 0.24782,-5.67256 -4.1105,-10.49071 -9.77836,-10.82945 -0.3583,-0.0214 -0.70003,-0.0305 -1.0511,-0.0159 z m 0.12741,3.21698 c 0.24271,-0.0101 0.48487,-0.0148 0.73258,0 3.91856,0.23419 6.92382,3.56325 6.75248,7.48506 l 0,0.12741 c -0.23688,3.96342 -3.64904,6.97343 -7.61247,6.73656 -3.96342,-0.23688 -6.97343,-3.63312 -6.73655,-7.59655 0.22207,-3.71571 3.22324,-6.60125 6.86396,-6.75248 z m 0.15925,3.79031 c -1.71994,0.0714 -3.128,1.42976 -3.23291,3.18513 -0.1119,1.8724 1.31274,3.4873 3.18514,3.5992 1.8724,0.11191 3.47137,-1.31273 3.58327,-3.18513 l 0,-0.0637 c 0.081,-1.85274 -1.33393,-3.42486 -3.18513,-3.5355 -0.11703,-0.007 -0.2357,-0.005 -0.35037,0 z"
     style="fill:#929292;fill-opacity:1;stroke:none" /></g><path
   inkscape:connector-curvature="0"
   style="fill:#3b7c91;fill-opacity:1;stroke:none"
   d="m 94.270853,35.961144 -3.576133,3.467765 c 6.143501,3.689899 10.12341,10.520032 9.78921,18.169644 l 0,0.325103 c -0.40693,6.808772 -4.177211,12.59601 -9.572474,15.930046 l 3.576132,3.467765 C 100.62902,73.101613 104.84575,66.22062 105.32435,58.212637 l 0,-0.397348 c 0.39435,-9.02635 -4.05681,-17.152121 -11.053497,-21.854145 z m -7.260633,7.043898 -3.720623,3.576133 c 4.554093,1.332662 7.765437,5.643926 7.549613,10.583908 l 0,0.180613 c -0.265934,4.44957 -3.263123,8.085198 -7.260633,9.391863 l 3.648378,3.540011 c 4.656611,-2.37201 7.973498,-7.042835 8.308187,-12.642894 l 0.03612,-0.252858 C 95.844312,51.131819 92.313833,45.589371 87.01022,43.005042 z M 80.110812,51.7467 c -2.521998,0.104726 -4.578221,2.085861 -4.732054,4.659809 -0.07926,1.326305 0.366171,2.560586 1.155921,3.503888 l 0.577961,0.577961 c 0.06999,0.06045 0.143365,0.124111 0.216736,0.180612 0.75886,0.584411 1.679608,0.949902 2.709191,1.011432 2.745556,0.164095 5.109811,-1.914253 5.273893,-4.659809 l 0,-0.10831 c 0.118772,-2.716728 -1.981464,-5.003292 -4.695932,-5.165525 -0.171605,-0.0104 -0.337572,-0.0069 -0.505716,0 z"
   id="path3109-2-4" /><path
   style="fill:#ffffff;fill-opacity:1;stroke:#3b7c91;stroke-width:10;stroke-linecap:butt;stroke-linejoin:round;stroke-miterlimit:4;stroke-opacity:1;stroke-dasharray:none;stroke-dashoffset:0;filter:url(#filter3787-2-1)"
   d="m 169.93749,40.265624 -20.0625,34.718746 20.0625,34.75001 40.12501,0 20.0625,-34.75001 -20.0625,-34.718746 -40.12501,0 z"
   id="path4729-7-4"
   inkscape:connector-curvature="0" /><path
   inkscape:connector-curvature="0"
   style="fill:#3b7c91;fill-opacity:1;stroke:none"
   d="m 203.94905,54.246159 -3.57614,3.467765 c 6.1435,3.689899 10.12342,10.520032 9.78921,18.169644 l 0,0.325103 c -0.40692,6.808772 -4.17721,12.59601 -9.57247,15.930049 l 3.57613,3.467767 c 6.14143,-4.219858 10.35816,-11.100853 10.83676,-19.108835 l 0,-0.397348 c 0.39435,-9.02635 -4.05681,-17.152121 -11.05349,-21.854145 z m -7.26063,7.043898 -3.72062,3.576133 c 4.55409,1.332662 7.76544,5.643926 7.54961,10.583907 l 0,0.180613 c -0.26593,4.44957 -3.26311,8.085198 -7.26062,9.391863 l 3.64837,3.540011 c 4.65663,-2.37201 7.9735,-7.042835 8.30819,-12.642894 l 0.0361,-0.252858 c 0.27306,-6.249999 -3.25743,-11.792447 -8.56103,-14.376776 z m -6.8994,8.741658 c -2.522,0.104726 -4.57822,2.08586 -4.73205,4.659809 -0.0793,1.326305 0.36617,2.560586 1.15591,3.503888 l 0.57797,0.577961 c 0.07,0.06045 0.14337,0.124111 0.21674,0.180612 0.75884,0.584411 1.67959,0.949901 2.70919,1.011432 2.74555,0.164095 5.10981,-1.914254 5.27389,-4.659809 l 0,-0.10831 c 0.11877,-2.716728 -1.98146,-5.003292 -4.69594,-5.165525 -0.1716,-0.0104 -0.33757,-0.0069 -0.50571,0 z"
   id="path3109-2-4-2" /><path
   id="path3088-7-8-4"
   style="fill:#929292;fill-opacity:1;stroke:none"
   d="M 190.21877,100.03125 C 176.98814,100.1509 165.82955,89.85684 165.03127,76.5 c -0.0301,-0.50443 -0.031,-1.00119 -0.0312,-1.5 l 4.8125,0 c -8e-5,0.40601 0.007,0.80812 0.0312,1.21875 0.64374,10.77118 9.64309,19.06529 20.3125,18.96875 0.34418,-0.003 0.68379,-0.0106 1.03125,-0.0312 2.5905,-0.15482 5.05356,-0.81249 7.28125,-1.84375 l 3.6563,3.5625 c -3.17028,1.75732 -6.77234,2.8635 -10.625,3.09375 -0.43085,0.0258 -0.85445,0.0585 -1.28125,0.0625 z m 17.375,-7.25 c 0.32011,-0.31668 0.63491,-0.63545 0.9375,-0.96875 -0.3009,0.3315 -0.61924,0.65369 -0.9375,0.96875 z m -18.25,-2.53125 c -7.72166,-0.32073 -14.09152,-6.43179 -14.5625,-14.3125 -0.0188,-0.31523 -2.5e-4,-0.62582 0,-0.9375 l 4.6875,0 c -1.8e-4,0.21544 -0.013,0.43831 0,0.65625 0.32563,5.44845 4.72401,9.65325 10.0625,9.875 0.28471,0.0119 0.58174,0.009 0.875,0 l 4.15625,4 c -1.16362,0.36991 -2.37974,0.64246 -3.65625,0.71875 -0.52539,0.0314 -1.04771,0.0214 -1.5625,0 z m 15.8125,-1.9375 c 0.30501,-0.34776 0.59436,-0.72569 0.875,-1.09375 -0.28342,0.37046 -0.5669,0.74385 -0.875,1.09375 z m -6.71875,-7 c 0.19422,-0.26112 0.39281,-0.53386 0.5625,-0.8125 -0.17227,0.28471 -0.36475,0.54598 -0.5625,0.8125 z M 189.78127,80 c -0.14731,-0.006 -0.29021,-0.0422 -0.4375,-0.0625 0.14025,0.0114 0.29034,0.0251 0.4375,0.0312 0.16815,0.007 0.32839,0.0104 0.5,0 0.16965,-0.0101 0.33554,-0.005 0.5,-0.0312 -0.16428,0.0265 -0.33035,0.0524 -0.5,0.0625 -0.1716,0.0103 -0.33185,0.007 -0.5,0 z m -4.6875,-4.21875 c -0.0272,-0.15653 -0.0529,-0.30788 -0.0625,-0.46875 -0.006,-0.10403 -2.4e-4,-0.20958 0,-0.3125 l 0.0312,0 c 4.9e-4,0.10268 -0.006,0.20888 0,0.3125 0.01,0.16087 0.0119,0.31218 0.0312,0.46875 z m 5.12498,-25.8125 C 176.98812,49.849097 165.82953,60.143162 165.03125,73.5 165.0011,74.004428 165.00021,74.501186 165,75 l 4.8125,0 c -8e-5,-0.406012 0.007,-0.808119 0.0312,-1.21875 0.64374,-10.771186 9.64309,-19.065293 20.3125,-18.96875 0.34418,0.0029 0.68379,0.01057 1.03125,0.03125 2.5905,0.154822 5.05356,0.812484 7.28125,1.84375 l 3.6563,-3.5625 c -3.17028,-1.757325 -6.77234,-2.863497 -10.625,-3.09375 -0.43085,-0.02581 -0.85445,-0.05854 -1.28125,-0.0625 z m 17.375,7.25 c 0.32011,0.316675 0.63491,0.635449 0.9375,0.96875 -0.3009,-0.331499 -0.61924,-0.653687 -0.9375,-0.96875 z m -18.25,2.53125 c -7.72166,0.32073 -14.09152,6.431786 -14.5625,14.3125 -0.0188,0.315229 -2.5e-4,0.625823 0,0.9375 l 4.6875,0 c -1.8e-4,-0.215446 -0.013,-0.438311 0,-0.65625 0.32563,-5.448455 4.72401,-9.653247 10.0625,-9.875 0.28471,-0.01185 0.58174,-0.0089 0.875,0 l 4.15625,-4 c -1.16362,-0.369911 -2.37974,-0.642459 -3.65625,-0.71875 -0.52539,-0.03138 -1.04771,-0.02141 -1.5625,0 z m 15.8125,1.9375 c 0.30501,0.347762 0.59436,0.725684 0.875,1.09375 -0.28342,-0.370463 -0.5669,-0.743847 -0.875,-1.09375 z m -6.71875,7 c 0.19422,0.261121 0.39281,0.533855 0.5625,0.8125 -0.17227,-0.284711 -0.36475,-0.545979 -0.5625,-0.8125 z M 189.78125,70 c -0.14731,0.0061 -0.29021,0.04218 -0.4375,0.0625 0.14025,-0.01144 0.29034,-0.02514 0.4375,-0.03125 0.16815,-0.0069 0.32839,-0.0104 0.5,0 0.16965,0.01014 0.33554,0.0049 0.5,0.03125 -0.16428,-0.02646 -0.33035,-0.05236 -0.5,-0.0625 -0.1716,-0.01026 -0.33185,-0.0073 -0.5,0 z m -4.6875,4.21875 c -0.0272,0.156532 -0.0529,0.307878 -0.0625,0.46875 -0.006,0.104031 -2.4e-4,0.20958 0,0.3125 l 0.0312,0 c 4.8e-4,-0.10268 -0.006,-0.208882 0,-0.3125 0.01,-0.160871 0.0119,-0.312182 0.0312,-0.46875 z"
   inkscape:connector-curvature="0" /></svg>