<?xml version="1.0" encoding="UTF-8" standalone="no"?>
<!-- Created with Inkscape (http://www.inkscape.org/) -->

<svg
   xmlns:dc="http://purl.org/dc/elements/1.1/"
   xmlns:cc="http://creativecommons.org/ns#"
   xmlns:rdf="http://www.w3.org/1999/02/22-rdf-syntax-ns#"
   xmlns:svg="http://www.w3.org/2000/svg"
   xmlns="http://www.w3.org/2000/svg"
   xmlns:sodipodi="http://sodipodi.sourceforge.net/DTD/sodipodi-0.dtd"
   xmlns:inkscape="http://www.inkscape.org/namespaces/inkscape"
   width="90.816078"
   height="80.007774"
   id="svg3975"
   version="1.1"
   inkscape:version="0.48.4 r9939"
   sodipodi:docname="New document 9">
  <defs
     id="defs3977">
    <filter
       color-interpolation-filters="sRGB"
       inkscape:collect="always"
       id="filter3787-2-1">
      <feGaussianBlur
         inkscape:collect="always"
         stdDeviation="0.11228906"
         id="feGaussianBlur3789-6-7" />
    </filter>
  </defs>
  <sodipodi:namedview
     id="base"
     pagecolor="#ffffff"
     bordercolor="#666666"
     borderopacity="1.0"
     inkscape:pageopacity="0.0"
     inkscape:pageshadow="2"
     inkscape:zoom="0.7"
     inkscape:cx="-119.59196"
     inkscape:cy="59.996615"
     inkscape:document-units="px"
     inkscape:current-layer="layer1"
     showgrid="false"
     fit-margin-top="0"
     fit-margin-left="0"
     fit-margin-right="0"
     fit-margin-bottom="0"
     inkscape:window-width="463"
     inkscape:window-height="423"
     inkscape:window-x="2020"
     inkscape:window-y="100"
     inkscape:window-maximized="0" />
  <metadata
     id="metadata3980">
    <rdf:RDF>
      <cc:Work
         rdf:about="">
        <dc:format>image/svg+xml</dc:format>
        <dc:type
           rdf:resource="http://purl.org/dc/dcmitype/StillImage" />
        <dc:title></dc:title>
      </cc:Work>
    </rdf:RDF>
  </metadata>
  <g
     inkscape:label="Layer 1"
     inkscape:groupmode="layer"
     id="layer1"
     transform="translate(-494.59196,-226.63674)">
    <path
       style="fill:#ffffff;fill-opacity:1;stroke:#3b7c91;stroke-width:10;stroke-linecap:butt;stroke-linejoin:round;stroke-miterlimit:4;stroke-opacity:1;stroke-dasharray:none;stroke-dashoffset:0;filter:url(#filter3787-2-1)"
       d="m 519.9375,231.91352 -20.06251,34.71875 20.06251,34.75001 40.12501,0 20.0625,-34.75001 -20.0625,-34.71875 -40.12501,0 z"
       id="path4729-7-4"
       inkscape:connector-curvature="0" />
    <path
       inkscape:connector-curvature="0"
       style="fill:#3b7c91;fill-opacity:1;stroke:none"
       d="m 553.94906,245.89405 -3.57614,3.46777 c 6.1435,3.6899 10.12342,10.52003 9.78921,18.16964 l 0,0.32511 c -0.40692,6.80877 -4.17721,12.59601 -9.57247,15.93005 l 3.57613,3.46776 c 6.14143,-4.21986 10.35816,-11.10085 10.83676,-19.10883 l 0,-0.39735 c 0.39435,-9.02635 -4.05681,-17.15212 -11.05349,-21.85415 z m -7.26063,7.0439 -3.72062,3.57614 c 4.55409,1.33266 7.76544,5.64392 7.54961,10.5839 l 0,0.18062 c -0.26593,4.44957 -3.26311,8.08519 -7.26062,9.39186 l 3.64837,3.54001 c 4.65663,-2.37201 7.9735,-7.04284 8.30819,-12.64289 l 0.0361,-0.25286 c 0.27306,-6.25 -3.25743,-11.79245 -8.56103,-14.37678 z m -6.8994,8.74166 c -2.522,0.10473 -4.57822,2.08586 -4.73205,4.65981 -0.0793,1.3263 0.36617,2.56059 1.15591,3.50389 l 0.57797,0.57796 c 0.07,0.0605 0.14337,0.12411 0.21674,0.18061 0.75884,0.58441 1.67959,0.9499 2.70919,1.01143 2.74555,0.1641 5.10981,-1.91425 5.27389,-4.65981 l 0,-0.10831 c 0.11877,-2.71672 -1.98146,-5.00329 -4.69594,-5.16552 -0.1716,-0.0104 -0.33757,-0.007 -0.50571,0 z"
       id="path3109-2-4-2" />
    <path
       id="path3088-7-8-4"
       style="fill:#929292;fill-opacity:1;stroke:none"
       d="m 540.21878,291.67915 c -13.23063,0.11965 -24.38922,-10.17441 -25.1875,-23.53125 -0.0301,-0.50443 -0.031,-1.00119 -0.0312,-1.5 l 4.8125,0 c -8e-5,0.40601 0.007,0.80812 0.0312,1.21875 0.64374,10.77118 9.64309,19.06529 20.3125,18.96875 0.34418,-0.003 0.68379,-0.0106 1.03125,-0.0312 2.5905,-0.15482 5.05356,-0.81249 7.28125,-1.84375 l 3.6563,3.5625 c -3.17028,1.75732 -6.77234,2.8635 -10.625,3.09375 -0.43085,0.0258 -0.85445,0.0585 -1.28125,0.0625 z m 17.375,-7.25 c 0.32011,-0.31668 0.63491,-0.63545 0.9375,-0.96875 -0.3009,0.3315 -0.61924,0.65369 -0.9375,0.96875 z m -18.25,-2.53125 c -7.72166,-0.32073 -14.09152,-6.43179 -14.5625,-14.3125 -0.0188,-0.31523 -2.5e-4,-0.62582 0,-0.9375 l 4.6875,0 c -1.8e-4,0.21544 -0.013,0.43831 0,0.65625 0.32563,5.44845 4.72401,9.65325 10.0625,9.875 0.28471,0.0119 0.58174,0.009 0.875,0 l 4.15625,4 c -1.16362,0.36991 -2.37974,0.64246 -3.65625,0.71875 -0.52539,0.0314 -1.04771,0.0214 -1.5625,0 z m 15.8125,-1.9375 c 0.30501,-0.34776 0.59436,-0.72569 0.875,-1.09375 -0.28342,0.37046 -0.5669,0.74385 -0.875,1.09375 z m -6.71875,-7 c 0.19422,-0.26112 0.39281,-0.53386 0.5625,-0.8125 -0.17227,0.28471 -0.36475,0.54598 -0.5625,0.8125 z m -8.65625,-1.3125 c -0.14731,-0.006 -0.29021,-0.0422 -0.4375,-0.0625 0.14025,0.0114 0.29034,0.0251 0.4375,0.0312 0.16815,0.007 0.32839,0.0104 0.5,0 0.16965,-0.0101 0.33554,-0.005 0.5,-0.0312 -0.16428,0.0265 -0.33035,0.0524 -0.5,0.0625 -0.1716,0.0103 -0.33185,0.007 -0.5,0 z m -4.6875,-4.21875 c -0.0272,-0.15653 -0.0529,-0.30788 -0.0625,-0.46875 -0.006,-0.10403 -2.4e-4,-0.20958 0,-0.3125 l 0.0312,0 c 4.9e-4,0.10268 -0.006,0.20888 0,0.3125 0.01,0.16087 0.0119,0.31218 0.0312,0.46875 z m 5.12498,-25.8125 c -13.23063,-0.11966 -24.38922,10.17441 -25.1875,23.53125 -0.0301,0.50442 -0.031,1.00118 -0.0312,1.5 l 4.8125,0 c -8e-5,-0.40602 0.007,-0.80812 0.0312,-1.21875 0.64374,-10.77119 9.64309,-19.0653 20.3125,-18.96875 0.34418,0.003 0.68379,0.0106 1.03125,0.0312 2.5905,0.15482 5.05356,0.81248 7.28125,1.84375 l 3.6563,-3.5625 c -3.17028,-1.75733 -6.77234,-2.8635 -10.625,-3.09375 -0.43085,-0.0258 -0.85445,-0.0585 -1.28125,-0.0625 z m 17.375,7.25 c 0.32011,0.31667 0.63491,0.63544 0.9375,0.96875 -0.3009,-0.3315 -0.61924,-0.65369 -0.9375,-0.96875 z m -18.25,2.53125 c -7.72166,0.32073 -14.09152,6.43178 -14.5625,14.3125 -0.0188,0.31522 -2.5e-4,0.62582 0,0.9375 l 4.6875,0 c -1.8e-4,-0.21545 -0.013,-0.43832 0,-0.65625 0.32563,-5.44846 4.72401,-9.65325 10.0625,-9.875 0.28471,-0.0118 0.58174,-0.009 0.875,0 l 4.15625,-4 c -1.16362,-0.36992 -2.37974,-0.64246 -3.65625,-0.71875 -0.52539,-0.0314 -1.04771,-0.0214 -1.5625,0 z m 15.8125,1.9375 c 0.30501,0.34776 0.59436,0.72568 0.875,1.09375 -0.28342,-0.37047 -0.5669,-0.74385 -0.875,-1.09375 z m -6.71875,7 c 0.19422,0.26112 0.39281,0.53385 0.5625,0.8125 -0.17227,-0.28472 -0.36475,-0.54598 -0.5625,-0.8125 z m -8.65625,1.3125 c -0.14731,0.006 -0.29021,0.0422 -0.4375,0.0625 0.14025,-0.0114 0.29034,-0.0251 0.4375,-0.0312 0.16815,-0.007 0.32839,-0.0104 0.5,0 0.16965,0.0101 0.33554,0.005 0.5,0.0312 -0.16428,-0.0265 -0.33035,-0.0524 -0.5,-0.0625 -0.1716,-0.0103 -0.33185,-0.007 -0.5,0 z m -4.6875,4.21875 c -0.0272,0.15653 -0.0529,0.30787 -0.0625,0.46875 -0.006,0.10403 -2.4e-4,0.20958 0,0.3125 l 0.0312,0 c 4.8e-4,-0.10268 -0.006,-0.20889 0,-0.3125 0.01,-0.16088 0.0119,-0.31219 0.0312,-0.46875 z"
       inkscape:connector-curvature="0" />
  </g>
</svg>
